<?xml version="1.0" encoding="UTF-8" standalone="no"?>
<svg
   xmlns:dc="http://purl.org/dc/elements/1.1/"
   xmlns:cc="http://creativecommons.org/ns#"
   xmlns:rdf="http://www.w3.org/1999/02/22-rdf-syntax-ns#"
   xmlns:svg="http://www.w3.org/2000/svg"
   xmlns="http://www.w3.org/2000/svg"
   xmlns:sodipodi="http://sodipodi.sourceforge.net/DTD/sodipodi-0.dtd"
   xmlns:inkscape="http://www.inkscape.org/namespaces/inkscape"
   width="297mm"
   height="210mm"
   viewBox="0 0 297 210"
   version="1.1"
   id="svg8"
   sodipodi:docname="plant.svg"
   inkscape:version="1.0.2-2 (e86c870879, 2021-01-15)">
  <defs
     id="defs2">
    <inkscape:path-effect
       effect="spiro"
       id="path-effect993"
       is_visible="true"
       lpeversion="1" />
    <inkscape:path-effect
       effect="spiro"
       id="path-effect989"
       is_visible="true"
       lpeversion="1" />
    <inkscape:path-effect
       effect="spiro"
       id="path-effect985"
       is_visible="true"
       lpeversion="1" />
    <inkscape:path-effect
       effect="spiro"
       id="path-effect981"
       is_visible="true"
       lpeversion="1" />
    <inkscape:path-effect
       effect="spiro"
       id="path-effect977"
       is_visible="true"
       lpeversion="1" />
    <inkscape:path-effect
       effect="spiro"
       id="path-effect973"
       is_visible="true"
       lpeversion="1" />
    <inkscape:path-effect
       effect="spiro"
       id="path-effect969"
       is_visible="true"
       lpeversion="1" />
    <inkscape:path-effect
       effect="spiro"
       id="path-effect965"
       is_visible="true"
       lpeversion="1" />
    <inkscape:path-effect
       effect="spiro"
       id="path-effect961"
       is_visible="true"
       lpeversion="1" />
    <inkscape:path-effect
       effect="spiro"
       id="path-effect957"
       is_visible="true"
       lpeversion="1" />
    <inkscape:path-effect
       effect="spiro"
       id="path-effect953"
       is_visible="true"
       lpeversion="1" />
    <inkscape:path-effect
       effect="spiro"
       id="path-effect949"
       is_visible="true"
       lpeversion="1" />
    <inkscape:path-effect
       effect="spiro"
       id="path-effect945"
       is_visible="true"
       lpeversion="1" />
    <inkscape:path-effect
       effect="spiro"
       id="path-effect941"
       is_visible="true"
       lpeversion="1" />
    <inkscape:path-effect
       effect="spiro"
       id="path-effect937"
       is_visible="true"
       lpeversion="1" />
    <inkscape:path-effect
       effect="spiro"
       id="path-effect933"
       is_visible="true"
       lpeversion="1" />
    <inkscape:path-effect
       effect="spiro"
       id="path-effect929"
       is_visible="true"
       lpeversion="1" />
    <inkscape:path-effect
       effect="spiro"
       id="path-effect921"
       is_visible="true"
       lpeversion="1" />
    <inkscape:path-effect
       effect="spiro"
       id="path-effect917"
       is_visible="true"
       lpeversion="1" />
    <inkscape:path-effect
       effect="spiro"
       id="path-effect913"
       is_visible="true"
       lpeversion="1" />
    <inkscape:path-effect
       effect="spiro"
       id="path-effect909"
       is_visible="true"
       lpeversion="1" />
    <inkscape:path-effect
       effect="spiro"
       id="path-effect905"
       is_visible="true"
       lpeversion="1" />
    <inkscape:path-effect
       effect="spiro"
       id="path-effect901"
       is_visible="true"
       lpeversion="1" />
    <inkscape:path-effect
       effect="spiro"
       id="path-effect897"
       is_visible="true"
       lpeversion="1" />
    <inkscape:path-effect
       effect="spiro"
       id="path-effect893"
       is_visible="true"
       lpeversion="1" />
    <inkscape:path-effect
       effect="spiro"
       id="path-effect889"
       is_visible="true"
       lpeversion="1" />
    <inkscape:path-effect
       effect="spiro"
       id="path-effect885"
       is_visible="true"
       lpeversion="1" />
    <inkscape:path-effect
       effect="spiro"
       id="path-effect881"
       is_visible="true"
       lpeversion="1" />
    <inkscape:path-effect
       effect="spiro"
       id="path-effect877"
       is_visible="true"
       lpeversion="1" />
    <inkscape:path-effect
       effect="spiro"
       id="path-effect873"
       is_visible="true"
       lpeversion="1" />
    <inkscape:path-effect
       effect="spiro"
       id="path-effect869"
       is_visible="true"
       lpeversion="1" />
    <inkscape:path-effect
       effect="spiro"
       id="path-effect865"
       is_visible="true"
       lpeversion="1" />
    <inkscape:path-effect
       effect="spiro"
       id="path-effect861"
       is_visible="true"
       lpeversion="1" />
    <inkscape:path-effect
       effect="spiro"
       id="path-effect857"
       is_visible="true"
       lpeversion="1" />
    <inkscape:path-effect
       effect="spiro"
       id="path-effect839"
       is_visible="true"
       lpeversion="1" />
    <inkscape:path-effect
       effect="spiro"
       id="path-effect835"
       is_visible="true"
       lpeversion="1" />
  </defs>
  <sodipodi:namedview
     id="base"
     pagecolor="#ffffff"
     bordercolor="#666666"
     borderopacity="1.0"
     inkscape:pageopacity="0.0"
     inkscape:pageshadow="2"
     inkscape:zoom="0.98994949"
     inkscape:cx="518.66377"
     inkscape:cy="392.56243"
     inkscape:document-units="mm"
     inkscape:current-layer="layer1"
     inkscape:document-rotation="0"
     showgrid="false"
     inkscape:window-width="1920"
     inkscape:window-height="1001"
     inkscape:window-x="-9"
     inkscape:window-y="-9"
     inkscape:window-maximized="1" />
  <metadata
     id="metadata5">
    <rdf:RDF>
      <cc:Work
         rdf:about="">
        <dc:format>image/svg+xml</dc:format>
        <dc:type
           rdf:resource="http://purl.org/dc/dcmitype/StillImage" />
        <dc:title></dc:title>
      </cc:Work>
    </rdf:RDF>
  </metadata>
  <g
     inkscape:label="Layer 1"
     inkscape:groupmode="layer"
     id="layer1">
    <path
       style="fill:#ff8080;fill-opacity:0.526316;stroke:none;stroke-width:0.3024px;stroke-linecap:butt;stroke-linejoin:miter;stroke-opacity:1"
       d="M 43.597728,94.129971 C 42.664931,85.869733 39.53159,78.04488 36.594349,70.26836 33.657108,62.491841 30.855488,54.48779 30.637707,46.177904 30.361062,35.621926 34.486293,25.033629 41.771007,17.389144 49.05572,9.7446582 59.398317,5.1207167 69.949766,4.7058411 80.630016,4.2859012 91.026658,7.9729429 100.8519,12.181106 c 9.82525,4.208164 19.52379,9.030891 30.00996,11.100763 12.37887,2.443474 25.19845,0.912146 37.57515,-1.542283 12.3767,-2.45443 24.60718,-5.82905 37.16096,-7.097728 14.54898,-1.470312 29.97394,0.14328 42.28702,8.031404 6.15655,3.944062 11.39245,9.428573 14.61642,15.990938 3.22398,6.562364 4.35936,14.214035 2.71264,21.337725 -1.35025,5.841181 -4.45451,11.098351 -7.42513,16.305847 -2.97062,5.207495 -5.89722,10.604136 -6.83089,16.526199 -0.70406,4.46568 -0.23429,9.059959 0.88868,13.439109 1.12297,4.37914 2.88607,8.56723 4.78957,12.6678 3.80699,8.20115 8.26712,16.33612 9.44178,25.30117 1.55606,11.8759 -3.10659,24.17678 -11.39425,32.82392 -8.28766,8.64714 -19.90818,13.74808 -31.80581,15.12814 -14.62582,1.69652 -29.28116,-1.92865 -43.60535,-5.33603 -14.32419,-3.40738 -29.14401,-6.64066 -43.65878,-4.16797 -15.02778,2.56008 -28.29687,10.98154 -42.383472,16.80869 -7.0433,2.91358 -14.428594,5.20975 -22.033354,5.72418 -7.60476,0.51443 -15.477701,-0.84919 -21.983308,-4.82085 -5.309757,-3.2416 -9.534822,-8.12069 -12.382794,-13.65156 -2.847971,-5.53087 -4.355479,-11.69603 -4.830371,-17.89893 -0.949784,-12.40579 2.139745,-24.73976 5.549146,-36.70562 3.54044,-12.42577 7.497837,-25.17734 6.048011,-38.016049 z"
       id="bg1"
       inkscape:path-effect="#path-effect839"
       inkscape:original-d="M 43.597728,94.129971 C 40.285421,77.425647 27.470006,65.762234 30.637707,46.177904 33.80541,26.593573 62.174056,13.490157 69.949766,4.7058411 77.725475,-4.0784737 110.55813,17.090162 130.86186,23.281869 c 20.30373,6.191705 49.82438,-5.759704 74.73611,-8.640011 24.91173,-2.880307 39.74435,30.240347 59.61608,45.360067 19.87172,15.119719 -9.50371,21.888334 -14.25602,32.832046 -4.7523,10.943709 10.08032,34.272359 15.12003,51.408079 5.0397,17.13572 -28.79974,31.96835 -43.20006,47.95206 -14.40033,15.98373 -57.74378,-3.88769 -87.26413,-9.504 -29.52035,-5.61631 -58.031791,9.36031 -86.400134,17.71202 C 20.84539,208.75384 38.270021,152.30636 37.549717,132.14602 36.829415,111.9857 46.910035,110.8343 43.597728,94.129971 Z"
       sodipodi:nodetypes="sssssssssssss" />
    <path
       style="fill:#ff44ff;fill-opacity:0.368421;stroke:none;stroke-width:0.303655px;stroke-linecap:butt;stroke-linejoin:miter;stroke-opacity:1"
       d="M 54.502303,36.469187 C 55.584048,29.303445 59.139124,22.59383 64.18485,17.392033 69.230576,12.190237 75.71886,8.4723793 82.65158,6.3615901 c 13.86544,-4.2215786 29.0398,-2.01275 42.55904,3.2124051 12.30216,4.7547578 23.52071,11.8743568 35.16827,18.0618688 11.64756,6.187512 24.1078,11.548743 37.27522,12.30367 13.85765,0.7945 27.47521,-3.55459 41.32094,-4.535066 6.92287,-0.490238 14.00137,-0.114688 20.57414,2.11358 6.57276,2.228268 12.62728,6.441421 16.18774,12.398732 3.69655,6.185014 4.45654,13.806262 3.29134,20.916899 -1.1652,7.110637 -4.12182,13.802862 -7.46156,20.187607 -3.33974,6.384746 -7.09399,12.561944 -10.03116,19.141604 -2.93716,6.57966 -5.05723,13.66984 -4.88552,20.87327 0.21948,9.20782 4.12029,17.86415 6.5517,26.74786 1.2157,4.44186 2.07393,9.02734 1.90366,13.62941 -0.17028,4.60207 -1.42301,9.24458 -4.11743,12.9793 -2.89028,4.00619 -7.30873,6.76507 -12.04541,8.16762 -4.73668,1.40255 -9.78306,1.51859 -14.68752,0.92735 -9.80892,-1.18247 -19.08202,-5.10468 -28.79263,-6.92599 -20.6836,-3.87939 -41.82293,1.94003 -62.03245,7.80828 -24.17408,7.01944 -49.273192,14.25835 -74.151772,10.42237 -12.43929,-1.91799 -24.599468,-6.72207 -34.173627,-14.89214 -9.574158,-8.17008 -16.379311,-19.86414 -17.474688,-32.40267 -0.784523,-8.98026 1.335378,-18.07192 5.198412,-26.2167 3.863035,-8.14478 9.417796,-15.3962 15.623671,-21.93437 3.590498,-3.78275 7.413442,-7.35105 10.791483,-11.32468 3.378041,-3.973626 6.332175,-8.415405 7.861634,-13.401548 C 59.482311,76.870257 58.245438,68.515464 56.6953,60.558656 55.145162,52.601847 53.292266,44.484768 54.502303,36.469187 Z"
       id="bg2"
       inkscape:path-effect="#path-effect835"
       inkscape:original-d="m 54.502303,36.469187 c -1.157087,-9.688358 50.175747,-12.29051 70.708317,-26.8951918 20.53259,-14.6046811 55.67046,23.7143458 72.44349,30.3655388 16.77305,6.651195 53.64609,9.832953 78.08282,9.977246 24.43672,0.144295 -22.55696,48.874353 -19.0869,81.11938 3.47003,32.24499 2.89224,35.57136 4.33793,53.35657 1.44567,17.78523 -37.01674,1.44629 -55.52556,2.16898 -18.50882,0.72269 -41.35467,5.20582 -62.03245,7.80828 -20.67779,2.60245 -83.866421,-24.58132 -125.800087,-36.87244 -41.933664,-12.29112 13.88169,-32.10041 20.822083,-48.15107 6.940392,-16.050661 5.205522,-11.278632 18.653117,-24.726228 8.118085,-8.118086 -1.445676,-38.46271 -2.60276,-48.151065 z"
       sodipodi:nodetypes="ssssssssssss" />
    <g
       id="pot"
       style="fill:#9a2537;fill-opacity:0.75">
      <path
         id="rect843"
         style="fill:#9a2537;fill-opacity:0.75;stroke:none;stroke-width:0.216322;stroke-linecap:round;stroke-linejoin:round"
         d="m 167.50542,129.94011 h 58.91373 c 5.89751,0 10.64533,3.55719 10.64533,7.97576 v 1.1411 c 0,4.41857 -4.74782,7.97576 -10.64533,7.97576 h -58.91373 c -5.89751,0 -10.64532,-3.55719 -10.64532,-7.97576 v -1.1411 c 0,-4.41857 4.74781,-7.97576 10.64532,-7.97576 z" />
      <path
         id="rect851"
         style="fill:#9a2537;fill-opacity:0.75;stroke:none;stroke-width:0.264999;stroke-linecap:round;stroke-linejoin:round"
         d="m 164.79761,147.78868 h 63.5 c 0,0 0.45677,55.94048 -10.58333,55.94048 h -42.33334 c -10.0405,0 -10.58333,-55.94048 -10.58333,-55.94048 z"
         sodipodi:nodetypes="ccssc" />
      <path
         id="path923"
         style="fill:#9a2537;fill-opacity:0.75;stroke:none;stroke-width:0.167388;stroke-linecap:round;stroke-linejoin:round"
         d="m 109.88903,146.49921 h 45.58699 c 4.56345,0 8.23727,2.75252 8.23727,6.17158 v 0.88297 c 0,3.41906 -3.67382,6.17158 -8.23727,6.17158 h -45.58699 c -4.56344,0 -8.23726,-2.75252 -8.23726,-6.17158 v -0.88297 c 0,-3.41906 3.67382,-6.17158 8.23726,-6.17158 z" />
      <path
         id="path925"
         style="fill:#9a2537;fill-opacity:0.75;stroke:none;stroke-width:0.205054;stroke-linecap:round;stroke-linejoin:round"
         d="m 107.79375,160.31029 h 49.13581 c 0,0 0.35344,43.28631 -8.1893,43.28631 h -32.75721 c -7.76926,0 -8.1893,-43.28631 -8.1893,-43.28631 z"
         sodipodi:nodetypes="ccssc" />
    </g>
    <g
       id="leaf_1">
      <path
         style="fill:#48ff37;fill-opacity:0.65;stroke:none;stroke-width:0.264583px;stroke-linecap:butt;stroke-linejoin:miter;stroke-opacity:1"
         d="m 194.50656,126.62202 c -0.93489,-30.852838 3.03572,-61.849253 11.71726,-91.470235 2.01751,-6.883636 4.2874,-13.6933 6.80357,-20.410714 -6.19471,19.454582 -10.6284,39.469528 -13.22916,59.720237 -2.21982,17.284534 -3.10526,34.740272 -2.64584,52.160712 z"
         id="path855"
         inkscape:path-effect="#path-effect857"
         inkscape:original-d="m 194.50656,126.62202 c 0,0 7.81177,-60.979891 11.71726,-91.470235 3.90549,-30.4903432 6.80357,-20.410714 6.80357,-20.410714 0,0 -8.81918,39.813757 -13.22916,59.720237 -4.40999,19.906483 -2.64584,52.160712 -2.64584,52.160712 0,0 -2.64583,0 -2.64583,0 z" />
      <path
         style="fill:#48ff37;fill-opacity:0.65;stroke:none;stroke-width:0.440951px;stroke-linecap:butt;stroke-linejoin:miter;stroke-opacity:1"
         d="m 199.23235,118.18474 c -0.0464,-2.29047 0.50126,-4.59046 1.57483,-6.61428 0.94959,-1.7901 2.29247,-3.34801 3.77959,-4.72448 4.91841,-4.55245 11.56633,-7.188699 18.26801,-7.244211 -0.22992,3.480231 -1.37995,6.895541 -3.30195,9.806001 -1.922,2.91045 -4.61143,5.30918 -7.72186,6.88718 -3.8527,1.95458 -8.342,2.62797 -12.59862,1.88979 z"
         id="path859"
         inkscape:path-effect="#path-effect861"
         inkscape:original-d="m 199.23235,118.18474 c 0,0 1.05032,-4.40908 1.57483,-6.61428 0.52449,-2.20521 2.52017,-3.14922 3.77959,-4.72448 1.25943,-1.57528 18.26801,-7.244211 18.26801,-7.244211 0,0 -7.34876,11.129221 -11.02381,16.693181 -3.67503,5.56394 -12.59862,1.88979 -12.59862,1.88979 z" />
      <path
         style="fill:#48ff37;fill-opacity:0.65;stroke:none;stroke-width:0.395213px;stroke-linecap:butt;stroke-linejoin:miter;stroke-opacity:1"
         d="m 199.51238,100.41619 c -0.0416,-2.052895 0.44927,-4.114313 1.41149,-5.928215 0.8511,-1.60442 2.05469,-3.00074 3.38755,-4.234434 4.40824,-4.080249 10.36661,-6.443053 16.37315,-6.492806 -0.20607,3.119239 -1.23682,6.180295 -2.95946,8.788863 -1.72264,2.608569 -4.1331,4.758485 -6.9209,6.172811 -3.45308,1.751841 -7.47673,2.355391 -11.29183,1.693781 z"
         id="path863"
         inkscape:path-effect="#path-effect865"
         inkscape:original-d="m 199.51238,100.41619 c 0,0 0.94139,-3.951751 1.41149,-5.928215 0.47008,-1.976478 2.25875,-2.822567 3.38755,-4.234434 1.12879,-1.411881 16.37315,-6.492806 16.37315,-6.492806 0,0 -6.5865,9.974838 -9.88036,14.961674 -3.29383,4.986821 -11.29183,1.693781 -11.29183,1.693781 z" />
      <path
         style="fill:#48ff37;fill-opacity:0.65;stroke:none;stroke-width:0.292801px;stroke-linecap:butt;stroke-linejoin:miter;stroke-opacity:1"
         d="m 201.49929,83.362061 c -0.0308,-1.520927 0.33285,-3.048169 1.04573,-4.392034 0.63055,-1.188666 1.52225,-2.223158 2.50973,-3.137165 3.26593,-3.022939 7.68031,-4.77347 12.13038,-4.810328 -0.15267,2.310953 -0.91632,4.578798 -2.19257,6.511409 -1.27626,1.932611 -3.0621,3.52542 -5.1275,4.573251 -2.55828,1.297886 -5.53928,1.745036 -8.36577,1.254867 z"
         id="path867"
         inkscape:path-effect="#path-effect869"
         inkscape:original-d="m 201.49929,83.362061 c 0,0 0.69743,-2.927731 1.04573,-4.392034 0.34827,-1.464314 1.67345,-2.091156 2.50973,-3.137165 0.83629,-1.046021 12.13038,-4.810328 12.13038,-4.810328 0,0 -4.87975,7.390061 -7.32007,11.08466 -2.44029,3.694583 -8.36577,1.254867 -8.36577,1.254867 z" />
      <path
         style="fill:#48ff37;fill-opacity:0.65;stroke:none;stroke-width:0.248698px;stroke-linecap:butt;stroke-linejoin:miter;stroke-opacity:1"
         d="m 202.30254,68.840184 c -0.0262,-1.291834 0.28271,-2.589032 0.88821,-3.730474 0.53557,-1.009622 1.29296,-1.888291 2.1317,-2.664624 2.774,-2.567601 6.52345,-4.054454 10.30322,-4.085763 -0.12968,1.962861 -0.7783,3.889108 -1.86231,5.530615 -1.08402,1.641508 -2.60087,2.994396 -4.35516,3.884396 -2.17294,1.102389 -4.70491,1.482187 -7.10566,1.06585 z"
         id="path871"
         inkscape:path-effect="#path-effect873"
         inkscape:original-d="m 202.30254,68.840184 c 0,0 0.59238,-2.486735 0.88821,-3.730474 0.29582,-1.243749 1.42138,-1.776173 2.1317,-2.664624 0.71032,-0.888462 10.30322,-4.085763 10.30322,-4.085763 0,0 -4.14473,6.276918 -6.21747,9.415011 -2.07272,3.138079 -7.10566,1.06585 -7.10566,1.06585 z" />
      <path
         style="fill:#48ff37;fill-opacity:0.65;stroke:none;stroke-width:0.202819px;stroke-linecap:butt;stroke-linejoin:miter;stroke-opacity:1"
         d="m 204.85422,54.659457 c -0.0213,-1.053519 0.23056,-2.111412 0.72436,-3.042283 0.43677,-0.823368 1.05444,-1.539943 1.73845,-2.173059 2.26226,-2.093933 5.32002,-3.306495 8.4025,-3.332029 -0.10576,1.600756 -0.63472,3.171653 -1.51876,4.510338 -0.88404,1.338685 -2.12107,2.441995 -3.55173,3.167809 -1.77208,0.899022 -3.83696,1.208755 -5.79482,0.869224 z"
         id="path875"
         inkscape:path-effect="#path-effect877"
         inkscape:original-d="m 204.85422,54.659457 c 0,0 0.4831,-2.027987 0.72436,-3.042283 0.24124,-1.014304 1.15917,-1.448507 1.73845,-2.173059 0.57927,-0.72456 8.4025,-3.332029 8.4025,-3.332029 0,0 -3.38012,5.118964 -5.07049,7.678147 -1.69034,2.559172 -5.79482,0.869224 -5.79482,0.869224 z" />
      <path
         style="fill:#48ff37;fill-opacity:0.65;stroke:none;stroke-width:0.162219px;stroke-linecap:butt;stroke-linejoin:miter;stroke-opacity:1"
         d="m 207.83149,42.100129 c -0.0171,-0.842627 0.18441,-1.688751 0.57936,-2.433281 0.34934,-0.658547 0.84336,-1.231678 1.39045,-1.738058 1.8094,-1.674769 4.25506,-2.644601 6.72049,-2.665026 -0.0846,1.280318 -0.50766,2.536753 -1.21474,3.607461 -0.70707,1.070709 -1.69647,1.953159 -2.84074,2.53368 -1.41734,0.719057 -3.06888,0.966788 -4.63482,0.695224 z"
         id="path879"
         inkscape:path-effect="#path-effect881"
         inkscape:original-d="m 207.83149,42.100129 c 0,0 0.38639,-1.622026 0.57936,-2.433281 0.19295,-0.811262 0.92713,-1.158546 1.39045,-1.738058 0.46331,-0.579518 6.72049,-2.665026 6.72049,-2.665026 0,0 -2.70349,4.094254 -4.05548,6.141141 -1.35198,2.04688 -4.63482,0.695224 -4.63482,0.695224 z" />
      <path
         style="fill:#48ff37;fill-opacity:0.65;stroke:none;stroke-width:0.126945px;stroke-linecap:butt;stroke-linejoin:miter;stroke-opacity:1"
         d="m 209.91014,30.785203 c -0.0134,-0.659402 0.14431,-1.321541 0.45338,-1.904176 0.27338,-0.51535 0.65998,-0.963857 1.08811,-1.360126 1.41596,-1.310593 3.32982,-2.069539 5.25915,-2.085529 -0.0662,1.001919 -0.39727,1.985149 -0.95059,2.823037 -0.55333,0.837888 -1.32758,1.528454 -2.22304,1.982744 -1.10915,0.562704 -2.40157,0.756567 -3.62701,0.54405 z"
         id="path883"
         inkscape:path-effect="#path-effect885"
         inkscape:original-d="m 209.91014,30.785203 c 0,0 0.30238,-1.269324 0.45338,-1.904176 0.15099,-0.634857 0.72553,-0.906626 1.08811,-1.360126 0.36256,-0.453504 5.25915,-2.085529 5.25915,-2.085529 0,0 -2.11563,3.203978 -3.17363,4.805781 -1.058,1.601795 -3.62701,0.54405 -3.62701,0.54405 z" />
      <path
         style="fill:#48ff37;fill-opacity:0.65;stroke:none;stroke-width:0.0916714px;stroke-linecap:butt;stroke-linejoin:miter;stroke-opacity:1"
         d="m 211.98878,21.927124 c -0.01,-0.476177 0.10421,-0.954331 0.3274,-1.375071 0.19742,-0.372153 0.4766,-0.696035 0.78577,-0.982194 1.02251,-0.946417 2.40457,-1.494476 3.79781,-1.506032 -0.0478,0.72352 -0.28688,1.433544 -0.68646,2.038612 -0.39957,0.605068 -0.95869,1.10375 -1.60533,1.431808 -0.80096,0.406348 -1.73426,0.546343 -2.61919,0.392877 z"
         id="path887"
         inkscape:path-effect="#path-effect889"
         inkscape:original-d="m 211.98878,21.927124 c 0,0 0.21836,-0.916622 0.3274,-1.375071 0.10904,-0.458452 0.52393,-0.654706 0.78577,-0.982194 0.26181,-0.32749 3.79781,-1.506032 3.79781,-1.506032 0,0 -1.52777,2.313703 -2.29179,3.47042 -0.76402,1.156712 -2.61919,0.392877 -2.61919,0.392877 z" />
      <path
         style="fill:#48ff37;fill-opacity:0.65;stroke:none;stroke-width:0.440951px;stroke-linecap:butt;stroke-linejoin:miter;stroke-opacity:1"
         d="m 192.047,117.05081 c 0.0464,-2.29047 -0.50126,-4.59046 -1.57483,-6.61428 -0.94959,-1.7901 -2.29247,-3.34801 -3.77959,-4.72448 -4.91841,-4.55245 -11.56633,-7.188699 -18.26801,-7.24421 0.22992,3.48023 1.37995,6.89554 3.30195,9.806 1.922,2.91045 4.61143,5.30918 7.72186,6.88718 3.8527,1.95458 8.342,2.62797 12.59862,1.88979 z"
         id="path891"
         inkscape:path-effect="#path-effect893"
         inkscape:original-d="m 192.047,117.05081 c 0,0 -1.05032,-4.40908 -1.57483,-6.61428 -0.52449,-2.20521 -2.52017,-3.14922 -3.77959,-4.72448 -1.25943,-1.57528 -18.26801,-7.24421 -18.26801,-7.24421 0,0 7.34876,11.12922 11.02381,16.69318 3.67503,5.56394 12.59862,1.88979 12.59862,1.88979 z" />
      <path
         style="fill:#48ff37;fill-opacity:0.65;stroke:none;stroke-width:0.395213px;stroke-linecap:butt;stroke-linejoin:miter;stroke-opacity:1"
         d="m 193.65685,98.337321 c 0.0416,-2.052895 -0.44927,-4.114313 -1.41149,-5.928215 -0.8511,-1.60442 -2.05469,-3.00074 -3.38755,-4.234434 -4.40824,-4.080249 -10.36661,-6.443053 -16.37315,-6.492806 0.20607,3.119239 1.23682,6.180295 2.95946,8.788863 1.72264,2.608569 4.1331,4.758485 6.9209,6.172811 3.45308,1.751845 7.47673,2.355394 11.29183,1.693781 z"
         id="path895"
         inkscape:path-effect="#path-effect897"
         inkscape:original-d="m 193.65685,98.337321 c 0,0 -0.94139,-3.951751 -1.41149,-5.928215 -0.47008,-1.976478 -2.25875,-2.822567 -3.38755,-4.234434 -1.12879,-1.411881 -16.37315,-6.492806 -16.37315,-6.492806 0,0 6.5865,9.974838 9.88036,14.961674 3.29383,4.98682 11.29183,1.693781 11.29183,1.693781 z" />
      <path
         style="fill:#48ff37;fill-opacity:0.65;stroke:none;stroke-width:0.292801px;stroke-linecap:butt;stroke-linejoin:miter;stroke-opacity:1"
         d="m 193.74881,82.039144 c 0.0308,-1.520927 -0.33285,-3.048169 -1.04573,-4.392034 -0.63055,-1.188666 -1.52225,-2.223158 -2.50973,-3.137165 -3.26593,-3.022939 -7.68031,-4.77347 -12.13038,-4.810328 0.15267,2.310953 0.91632,4.578798 2.19257,6.511409 1.27626,1.932611 3.0621,3.52542 5.1275,4.573251 2.55828,1.297886 5.53928,1.745036 8.36577,1.254867 z"
         id="path899"
         inkscape:path-effect="#path-effect901"
         inkscape:original-d="m 193.74881,82.039144 c 0,0 -0.69743,-2.927731 -1.04573,-4.392034 -0.34827,-1.464314 -1.67345,-2.091156 -2.50973,-3.137165 -0.83629,-1.046021 -12.13038,-4.810328 -12.13038,-4.810328 0,0 4.87975,7.390061 7.32007,11.08466 2.44029,3.694583 8.36577,1.254867 8.36577,1.254867 z" />
      <path
         style="fill:#48ff37;fill-opacity:0.65;stroke:none;stroke-width:0.248698px;stroke-linecap:butt;stroke-linejoin:miter;stroke-opacity:1"
         d="m 195.21342,67.517267 c 0.0261,-1.291834 -0.28271,-2.589032 -0.88821,-3.730474 -0.53557,-1.009622 -1.29296,-1.888291 -2.1317,-2.664624 -2.774,-2.567601 -6.52345,-4.054454 -10.30322,-4.085763 0.12968,1.962861 0.7783,3.889108 1.86231,5.530615 1.08402,1.641508 2.60087,2.994396 4.35516,3.884396 2.17294,1.102389 4.70491,1.482187 7.10566,1.06585 z"
         id="path903"
         inkscape:path-effect="#path-effect905"
         inkscape:original-d="m 195.21342,67.517267 c 0,0 -0.59238,-2.486735 -0.88821,-3.730474 -0.29582,-1.243749 -1.42138,-1.776173 -2.1317,-2.664624 -0.71032,-0.888462 -10.30322,-4.085763 -10.30322,-4.085763 0,0 4.14473,6.276918 6.21747,9.415011 2.07272,3.138079 7.10566,1.06585 7.10566,1.06585 z" />
      <path
         style="fill:#48ff37;fill-opacity:0.65;stroke:none;stroke-width:0.202819px;stroke-linecap:butt;stroke-linejoin:miter;stroke-opacity:1"
         d="m 199.08733,53.525528 c 0.0213,-1.053519 -0.23056,-2.111412 -0.72436,-3.042283 -0.43677,-0.823368 -1.05444,-1.539943 -1.73845,-2.173059 -2.26226,-2.093933 -5.32002,-3.306495 -8.4025,-3.332029 0.10576,1.600756 0.63472,3.171653 1.51876,4.510338 0.88404,1.338685 2.12107,2.441995 3.55173,3.167809 1.77208,0.899022 3.83696,1.208755 5.79482,0.869224 z"
         id="path907"
         inkscape:path-effect="#path-effect909"
         inkscape:original-d="m 199.08733,53.525528 c 0,0 -0.4831,-2.027987 -0.72436,-3.042283 -0.24124,-1.014304 -1.15917,-1.448507 -1.73845,-2.173059 -0.57927,-0.72456 -8.4025,-3.332029 -8.4025,-3.332029 0,0 3.38012,5.118964 5.07049,7.678147 1.69034,2.559172 5.79482,0.869224 5.79482,0.869224 z" />
      <path
         style="fill:#48ff37;fill-opacity:0.65;stroke:none;stroke-width:0.162219px;stroke-linecap:butt;stroke-linejoin:miter;stroke-opacity:1"
         d="m 202.53565,41.344176 c 0.017,-0.842627 -0.18441,-1.688751 -0.57936,-2.433281 -0.34934,-0.658547 -0.84336,-1.231678 -1.39045,-1.738058 -1.8094,-1.674769 -4.25506,-2.644601 -6.72049,-2.665026 0.0846,1.280318 0.50766,2.536753 1.21474,3.607461 0.70707,1.070709 1.69647,1.953159 2.84074,2.53368 1.41734,0.719057 3.06888,0.966788 4.63482,0.695224 z"
         id="path911"
         inkscape:path-effect="#path-effect913"
         inkscape:original-d="m 202.53565,41.344176 c 0,0 -0.38639,-1.622026 -0.57936,-2.433281 -0.19295,-0.811262 -0.92713,-1.158546 -1.39045,-1.738058 -0.46331,-0.579518 -6.72049,-2.665026 -6.72049,-2.665026 0,0 2.70349,4.094254 4.05548,6.141141 1.35198,2.04688 4.63482,0.695224 4.63482,0.695224 z" />
      <path
         style="fill:#48ff37;fill-opacity:0.65;stroke:none;stroke-width:0.126945px;stroke-linecap:butt;stroke-linejoin:miter;stroke-opacity:1"
         d="m 205.93766,30.02925 c 0.0134,-0.659402 -0.14431,-1.321541 -0.45338,-1.904176 -0.27338,-0.51535 -0.65998,-0.963857 -1.08811,-1.360126 -1.41596,-1.310593 -3.32982,-2.069539 -5.25915,-2.085529 0.0662,1.001919 0.39727,1.985149 0.95059,2.823037 0.55333,0.837888 1.32758,1.528454 2.22304,1.982744 1.10915,0.562704 2.40157,0.756567 3.62701,0.54405 z"
         id="path915"
         inkscape:path-effect="#path-effect917"
         inkscape:original-d="m 205.93766,30.02925 c 0,0 -0.30238,-1.269324 -0.45338,-1.904176 -0.15099,-0.634857 -0.72553,-0.906626 -1.08811,-1.360126 -0.36256,-0.453504 -5.25915,-2.085529 -5.25915,-2.085529 0,0 2.11563,3.203978 3.17363,4.805781 1.058,1.601795 3.62701,0.54405 3.62701,0.54405 z" />
      <path
         style="fill:#48ff37;fill-opacity:0.65;stroke:none;stroke-width:0.0916714px;stroke-linecap:butt;stroke-linejoin:miter;stroke-opacity:1"
         d="m 208.20575,20.793195 c 0.01,-0.476177 -0.10421,-0.954331 -0.3274,-1.375071 -0.19742,-0.372153 -0.4766,-0.696035 -0.78577,-0.982194 -1.02251,-0.946417 -2.40457,-1.494476 -3.79781,-1.506032 0.0478,0.72352 0.28688,1.433544 0.68646,2.038612 0.39957,0.605068 0.95869,1.10375 1.60533,1.431808 0.80096,0.406348 1.73426,0.546343 2.61919,0.392877 z"
         id="path919"
         inkscape:path-effect="#path-effect921"
         inkscape:original-d="m 208.20575,20.793195 c 0,0 -0.21836,-0.916622 -0.3274,-1.375071 -0.10904,-0.458452 -0.52393,-0.654706 -0.78577,-0.982194 -0.26181,-0.32749 -3.79781,-1.506032 -3.79781,-1.506032 0,0 1.52777,2.313703 2.29179,3.47042 0.76402,1.156712 2.61919,0.392877 2.61919,0.392877 z" />
    </g>
    <g
       id="leaf_2">
      <path
         style="fill:#48ff37;fill-opacity:0.65;stroke:none;stroke-width:0.204732px;stroke-linecap:butt;stroke-linejoin:miter;stroke-opacity:1"
         d="m 130.78231,143.9317 c -0.72342,-23.87371 2.34901,-47.858511 9.06672,-70.779015 1.56113,-5.326504 3.31755,-10.595769 5.26455,-15.793651 -4.79342,15.053808 -8.22417,30.541221 -10.23662,46.211066 -1.71768,13.37465 -2.40283,26.88179 -2.04733,40.3616 z"
         id="path927"
         inkscape:path-effect="#path-effect929"
         inkscape:original-d="m 130.78231,143.9317 c 0,0 6.04468,-47.185825 9.06672,-70.779015 3.02204,-23.59319 5.26455,-15.793651 5.26455,-15.793651 0,0 -6.82421,30.807574 -10.23662,46.211066 -3.41242,15.40353 -2.04733,40.3616 -2.04733,40.3616 0,0 -2.04732,0 -2.04732,0 z" />
      <path
         style="fill:#48ff37;fill-opacity:0.65;stroke:none;stroke-width:0.341204px;stroke-linecap:butt;stroke-linejoin:miter;stroke-opacity:1"
         d="m 134.43908,137.403 c -0.0359,-1.77235 0.38788,-3.55206 1.2186,-5.11808 0.73479,-1.38516 1.77389,-2.59067 2.92461,-3.65577 3.80582,-3.52266 8.94994,-5.56257 14.13565,-5.60551 -0.17791,2.69297 -1.0678,5.33571 -2.55503,7.5878 -1.48723,2.25209 -3.56829,4.1082 -5.97511,5.32925 -2.98119,1.51244 -6.45498,2.03351 -9.74872,1.46231 z"
         id="path931"
         inkscape:path-effect="#path-effect933"
         inkscape:original-d="m 134.43908,137.403 c 0,0 0.81273,-3.41172 1.2186,-5.11808 0.40584,-1.70638 1.95008,-2.43684 2.92461,-3.65577 0.97454,-1.21894 14.13565,-5.60551 14.13565,-5.60551 0,0 -5.68642,8.6117 -8.53014,12.91705 -2.84371,4.30533 -9.74872,1.46231 -9.74872,1.46231 z" />
      <path
         style="fill:#48ff37;fill-opacity:0.65;stroke:none;stroke-width:0.305813px;stroke-linecap:butt;stroke-linejoin:miter;stroke-opacity:1"
         d="m 134.65577,123.65383 c -0.0322,-1.58851 0.34764,-3.18362 1.0922,-4.5872 0.65857,-1.24149 1.5899,-2.32196 2.62126,-3.27658 3.41106,-3.15727 8.0216,-4.98559 12.66941,-5.02408 -0.15945,2.41364 -0.95703,4.78227 -2.29,6.80076 -1.33296,2.01849 -3.19817,3.68208 -5.35534,4.77647 -2.67197,1.35556 -5.78544,1.82258 -8.73753,1.31063 z"
         id="path935"
         inkscape:path-effect="#path-effect937"
         inkscape:original-d="m 134.65577,123.65383 c 0,0 0.72844,-3.05783 1.0922,-4.5872 0.36374,-1.52939 1.7478,-2.18409 2.62126,-3.27658 0.87345,-1.0925 12.66941,-5.02408 12.66941,-5.02408 0,0 -5.09658,7.71846 -7.64534,11.57723 -2.54874,3.85876 -8.73753,1.31063 -8.73753,1.31063 z" />
      <path
         style="fill:#48ff37;fill-opacity:0.65;stroke:none;stroke-width:0.226567px;stroke-linecap:butt;stroke-linejoin:miter;stroke-opacity:1"
         d="m 136.19323,110.45748 c -0.0238,-1.17689 0.25755,-2.35866 0.80917,-3.39854 0.48791,-0.91979 1.17791,-1.72027 1.94201,-2.42753 2.52715,-2.33914 5.94297,-3.69369 9.3864,-3.72222 -0.11813,1.78821 -0.70904,3.54306 -1.69659,5.0385 -0.98756,1.49545 -2.36944,2.72796 -3.96763,3.53877 -1.97958,1.0043 -4.28624,1.3503 -6.47336,0.97102 z"
         id="path939"
         inkscape:path-effect="#path-effect941"
         inkscape:original-d="m 136.19323,110.45748 c 0,0 0.53966,-2.26547 0.80917,-3.39854 0.26949,-1.13308 1.29491,-1.61813 1.94201,-2.42753 0.64712,-0.80941 9.3864,-3.72222 9.3864,-3.72222 0,0 -3.77592,5.71841 -5.66422,8.57727 -1.88827,2.85885 -6.47336,0.97102 -6.47336,0.97102 z" />
      <path
         style="fill:#48ff37;fill-opacity:0.65;stroke:none;stroke-width:0.192441px;stroke-linecap:butt;stroke-linejoin:miter;stroke-opacity:1"
         d="m 136.81477,99.220505 c -0.0202,-0.999611 0.21876,-2.003374 0.68729,-2.886612 0.41442,-0.781238 1.00049,-1.461145 1.6495,-2.061865 2.1465,-1.986783 5.0478,-3.137298 7.97255,-3.161532 -0.10034,1.518846 -0.60224,3.009361 -1.44104,4.279547 -0.83881,1.270185 -2.01253,2.31704 -3.36999,3.005715 -1.6814,0.853022 -3.64063,1.146906 -5.49831,0.824747 z"
         id="path943"
         inkscape:path-effect="#path-effect945"
         inkscape:original-d="m 136.81477,99.220505 c 0,0 0.45838,-1.924216 0.68729,-2.886612 0.22891,-0.962403 1.09986,-1.374389 1.6495,-2.061865 0.54964,-0.687485 7.97255,-3.161532 7.97255,-3.161532 0,0 -3.20716,4.857031 -4.81103,7.285262 -1.60386,2.428222 -5.49831,0.824747 -5.49831,0.824747 z" />
      <path
         style="fill:#48ff37;fill-opacity:0.65;stroke:none;stroke-width:0.15694px;stroke-linecap:butt;stroke-linejoin:miter;stroke-opacity:1"
         d="m 138.78924,88.247569 c -0.0165,-0.815205 0.17841,-1.633795 0.56051,-2.354095 0.33797,-0.637116 0.81592,-1.191596 1.3452,-1.681496 1.75052,-1.620269 4.11659,-2.55854 6.50179,-2.578298 -0.0818,1.238653 -0.49114,2.4542 -1.17521,3.490064 -0.68406,1.035864 -1.64126,1.889597 -2.7483,2.451226 -1.37122,0.695656 -2.96901,0.935325 -4.48399,0.672599 z"
         id="path947"
         inkscape:path-effect="#path-effect949"
         inkscape:original-d="m 138.78924,88.247569 c 0,0 0.37382,-1.569241 0.56051,-2.354095 0.18667,-0.78486 0.89695,-1.120843 1.3452,-1.681496 0.44823,-0.560659 6.50179,-2.578298 6.50179,-2.578298 0,0 -2.61551,3.961014 -3.92351,5.94129 -1.30797,1.980268 -4.48399,0.672599 -4.48399,0.672599 z" />
      <path
         style="fill:#48ff37;fill-opacity:0.65;stroke:none;stroke-width:0.125524px;stroke-linecap:butt;stroke-linejoin:miter;stroke-opacity:1"
         d="m 141.09303,78.529259 c -0.0132,-0.652018 0.1427,-1.306743 0.44831,-1.882854 0.27032,-0.509578 0.65259,-0.953063 1.07592,-1.344895 1.4001,-1.295923 3.29253,-2.046371 5.20026,-2.062177 -0.0654,0.9907 -0.39283,1.96292 -0.93995,2.791426 -0.54713,0.828505 -1.31272,1.511338 -2.19815,1.960541 -1.09673,0.556401 -2.37468,0.748094 -3.58639,0.537959 z"
         id="path951"
         inkscape:path-effect="#path-effect953"
         inkscape:original-d="m 141.09303,78.529259 c 0,0 0.29899,-1.255111 0.44831,-1.882854 0.1493,-0.627748 0.7174,-0.896474 1.07592,-1.344895 0.3585,-0.448427 5.20026,-2.062177 5.20026,-2.062177 0,0 -2.09194,3.168102 -3.1381,4.751967 -1.04615,1.58386 -3.58639,0.537959 -3.58639,0.537959 z" />
      <path
         style="fill:#48ff37;fill-opacity:0.65;stroke:none;stroke-width:0.0982291px;stroke-linecap:butt;stroke-linejoin:miter;stroke-opacity:1"
         d="m 142.70148,69.773858 c -0.0103,-0.51024 0.11166,-1.022598 0.35082,-1.473437 0.21154,-0.398774 0.51069,-0.745825 0.84197,-1.052455 1.09566,-1.014128 2.57659,-1.601394 4.06949,-1.613766 -0.0512,0.775277 -0.30741,1.536093 -0.73556,2.184444 -0.42816,0.648351 -1.02727,1.182706 -1.72017,1.534232 -0.85825,0.435415 -1.85832,0.585425 -2.80655,0.420982 z"
         id="path955"
         inkscape:path-effect="#path-effect957"
         inkscape:original-d="m 142.70148,69.773858 c 0,0 0.23397,-0.982193 0.35082,-1.473437 0.11683,-0.491247 0.56141,-0.70154 0.84197,-1.052455 0.28054,-0.350918 4.06949,-1.613766 4.06949,-1.613766 0,0 -1.63706,2.479213 -2.45573,3.718676 -0.81867,1.239456 -2.80655,0.420982 -2.80655,0.420982 z" />
      <path
         style="fill:#48ff37;fill-opacity:0.65;stroke:none;stroke-width:0.0709346px;stroke-linecap:butt;stroke-linejoin:miter;stroke-opacity:1"
         d="m 144.30991,62.919545 c -0.007,-0.368462 0.0806,-0.738453 0.25334,-1.064019 0.15276,-0.287969 0.36879,-0.538586 0.60802,-0.760014 0.79121,-0.732333 1.86064,-1.156418 2.93872,-1.165356 -0.037,0.559854 -0.22199,1.109266 -0.53118,1.577462 -0.30918,0.468197 -0.74182,0.854073 -1.24219,1.107922 -0.61978,0.314429 -1.34196,0.422756 -2.02671,0.304005 z"
         id="path959"
         inkscape:path-effect="#path-effect961"
         inkscape:original-d="m 144.30991,62.919545 c 0,0 0.16897,-0.709275 0.25334,-1.064019 0.0844,-0.354746 0.40541,-0.506606 0.60802,-0.760014 0.20259,-0.253409 2.93872,-1.165356 2.93872,-1.165356 0,0 -1.18218,1.790326 -1.77337,2.685384 -0.59119,0.895055 -2.02671,0.304005 -2.02671,0.304005 z" />
      <path
         style="fill:#48ff37;fill-opacity:0.65;stroke:none;stroke-width:0.341204px;stroke-linecap:butt;stroke-linejoin:miter;stroke-opacity:1"
         d="m 128.87912,136.52557 c 0.0359,-1.77235 -0.38786,-3.55206 -1.21859,-5.11808 -0.73479,-1.38516 -1.7739,-2.59066 -2.92462,-3.65576 -3.80583,-3.52265 -8.94994,-5.56255 -14.13564,-5.60552 0.17791,2.69297 1.06779,5.33571 2.55502,7.5878 1.48723,2.25209 3.56829,4.1082 5.97511,5.32925 2.98119,1.51244 6.45498,2.03351 9.74872,1.46231 z"
         id="path963"
         inkscape:path-effect="#path-effect965"
         inkscape:original-d="m 128.87912,136.52557 c 0,0 -0.81273,-3.41171 -1.21859,-5.11808 -0.40585,-1.70637 -1.95009,-2.43684 -2.92462,-3.65576 -0.97454,-1.21894 -14.13564,-5.60552 -14.13564,-5.60552 0,0 5.68641,8.61171 8.53013,12.91705 2.84371,4.30534 9.74872,1.46231 9.74872,1.46231 z" />
      <path
         style="fill:#48ff37;fill-opacity:0.65;stroke:none;stroke-width:0.305813px;stroke-linecap:butt;stroke-linejoin:miter;stroke-opacity:1"
         d="m 130.12481,122.04522 c 0.0322,-1.58852 -0.34764,-3.18363 -1.0922,-4.58721 -0.65857,-1.24149 -1.5899,-2.32195 -2.62126,-3.27657 -3.41106,-3.15727 -8.0216,-4.98559 -12.66942,-5.02409 0.15946,2.41364 0.95704,4.78227 2.29001,6.80076 1.33296,2.01849 3.19817,3.68207 5.35534,4.77647 2.67197,1.35556 5.78543,1.82259 8.73753,1.31064 z"
         id="path967"
         inkscape:path-effect="#path-effect969"
         inkscape:original-d="m 130.12481,122.04522 c 0,0 -0.72844,-3.05784 -1.0922,-4.58721 -0.36375,-1.52938 -1.74781,-2.18408 -2.62126,-3.27657 -0.87345,-1.0925 -12.66942,-5.02409 -12.66942,-5.02409 0,0 5.09658,7.71846 7.64535,11.57723 2.54874,3.85877 8.73753,1.31064 8.73753,1.31064 z" />
      <path
         style="fill:#48ff37;fill-opacity:0.65;stroke:none;stroke-width:0.226567px;stroke-linecap:butt;stroke-linejoin:miter;stroke-opacity:1"
         d="m 130.19596,109.43381 c 0.0238,-1.17689 -0.25755,-2.35866 -0.80917,-3.39854 -0.48791,-0.91979 -1.17791,-1.72027 -1.94201,-2.42753 -2.52715,-2.33914 -5.94297,-3.693694 -9.3864,-3.722217 0.11813,1.788207 0.70903,3.543057 1.69659,5.038507 0.98756,1.49545 2.36943,2.72796 3.96763,3.53877 1.97958,1.00429 4.28625,1.3503 6.47336,0.97101 z"
         id="path971"
         inkscape:path-effect="#path-effect973"
         inkscape:original-d="m 130.19596,109.43381 c 0,0 -0.53966,-2.26547 -0.80917,-3.39854 -0.26949,-1.13308 -1.29491,-1.61813 -1.94201,-2.42753 -0.64712,-0.80941 -9.3864,-3.722217 -9.3864,-3.722217 0,0 3.77592,5.718407 5.66422,8.577277 1.88827,2.85885 6.47336,0.97101 6.47336,0.97101 z" />
      <path
         style="fill:#48ff37;fill-opacity:0.65;stroke:none;stroke-width:0.192441px;stroke-linecap:butt;stroke-linejoin:miter;stroke-opacity:1"
         d="m 131.32927,98.196842 c 0.0202,-0.999611 -0.21876,-2.003373 -0.68729,-2.886612 -0.41442,-0.781237 -1.00048,-1.461145 -1.64949,-2.061865 -2.1465,-1.986793 -5.0478,-3.13731 -7.97256,-3.161531 0.10034,1.518846 0.60224,3.009361 1.44104,4.279547 0.83881,1.270186 2.01253,2.31704 3.36999,3.005715 1.6814,0.853021 3.64063,1.146905 5.49831,0.824746 z"
         id="path975"
         inkscape:path-effect="#path-effect977"
         inkscape:original-d="m 131.32927,98.196842 c 0,0 -0.45838,-1.924216 -0.68729,-2.886612 -0.22891,-0.962403 -1.09985,-1.374389 -1.64949,-2.061865 -0.54964,-0.687485 -7.97256,-3.161531 -7.97256,-3.161531 0,0 3.20716,4.85703 4.81103,7.285262 1.60386,2.428217 5.49831,0.824746 5.49831,0.824746 z" />
      <path
         style="fill:#48ff37;fill-opacity:0.65;stroke:none;stroke-width:0.15694px;stroke-linecap:butt;stroke-linejoin:miter;stroke-opacity:1"
         d="m 134.32687,87.370144 c 0.0165,-0.815205 -0.1784,-1.633795 -0.5605,-2.354095 -0.33797,-0.637116 -0.81592,-1.191596 -1.3452,-1.681496 -1.75052,-1.620268 -4.11659,-2.558538 -6.50179,-2.578298 0.0818,1.238652 0.49114,2.4542 1.1752,3.490064 0.68407,1.035864 1.64126,1.889597 2.7483,2.451226 1.37122,0.695657 2.96901,0.935326 4.48399,0.672599 z"
         id="path979"
         inkscape:path-effect="#path-effect981"
         inkscape:original-d="m 134.32687,87.370144 c 0,0 -0.37382,-1.569241 -0.5605,-2.354095 -0.18667,-0.784861 -0.89696,-1.120844 -1.3452,-1.681496 -0.44824,-0.560659 -6.50179,-2.578298 -6.50179,-2.578298 0,0 2.61551,3.961014 3.9235,5.94129 1.30797,1.980267 4.48399,0.672599 4.48399,0.672599 z" />
      <path
         style="fill:#48ff37;fill-opacity:0.65;stroke:none;stroke-width:0.125524px;stroke-linecap:butt;stroke-linejoin:miter;stroke-opacity:1"
         d="m 136.99515,77.944309 c 0.0132,-0.652018 -0.14269,-1.306743 -0.4483,-1.882854 -0.27032,-0.509579 -0.65259,-0.953064 -1.07592,-1.344896 -1.4001,-1.295922 -3.29253,-2.04637 -5.20026,-2.062176 0.0654,0.990699 0.39282,1.962919 0.93995,2.791425 0.54712,0.828505 1.31271,1.511339 2.19814,1.960542 1.09673,0.556402 2.37468,0.748095 3.58639,0.537959 z"
         id="path983"
         inkscape:path-effect="#path-effect985"
         inkscape:original-d="m 136.99515,77.944309 c 0,0 -0.29898,-1.255112 -0.4483,-1.882854 -0.14931,-0.627749 -0.71741,-0.896474 -1.07592,-1.344896 -0.35851,-0.448427 -5.20026,-2.062176 -5.20026,-2.062176 0,0 2.09194,3.168101 3.13809,4.751967 1.04616,1.583859 3.58639,0.537959 3.58639,0.537959 z" />
      <path
         style="fill:#48ff37;fill-opacity:0.65;stroke:none;stroke-width:0.0982291px;stroke-linecap:butt;stroke-linejoin:miter;stroke-opacity:1"
         d="m 139.6276,69.188907 c 0.0103,-0.51024 -0.11166,-1.022598 -0.35082,-1.473436 -0.21154,-0.398774 -0.51069,-0.745825 -0.84197,-1.052455 -1.09566,-1.014128 -2.57659,-1.601394 -4.06949,-1.613766 0.0512,0.775277 0.30741,1.536093 0.73556,2.184444 0.42816,0.648351 1.02727,1.182706 1.72017,1.534232 0.85825,0.435415 1.85832,0.585425 2.80655,0.420981 z"
         id="path987"
         inkscape:path-effect="#path-effect989"
         inkscape:original-d="m 139.6276,69.188907 c 0,0 -0.23398,-0.982193 -0.35082,-1.473436 -0.11684,-0.491248 -0.56141,-0.70154 -0.84197,-1.052455 -0.28055,-0.350918 -4.06949,-1.613766 -4.06949,-1.613766 0,0 1.63706,2.479213 2.45573,3.718676 0.81867,1.239456 2.80655,0.420981 2.80655,0.420981 z" />
      <path
         style="fill:#48ff37;fill-opacity:0.65;stroke:none;stroke-width:0.0709346px;stroke-linecap:butt;stroke-linejoin:miter;stroke-opacity:1"
         d="m 141.38263,62.04212 c 0.007,-0.368462 -0.0806,-0.738453 -0.25334,-1.064019 -0.15276,-0.287969 -0.36879,-0.538586 -0.60802,-0.760014 -0.79121,-0.732333 -1.86064,-1.156418 -2.93872,-1.165356 0.037,0.559854 0.22199,1.109266 0.53118,1.577462 0.30918,0.468197 0.74182,0.854073 1.24219,1.107922 0.61978,0.314429 1.34196,0.422756 2.02671,0.304005 z"
         id="path991"
         inkscape:path-effect="#path-effect993"
         inkscape:original-d="m 141.38263,62.04212 c 0,0 -0.16896,-0.709275 -0.25334,-1.064019 -0.0844,-0.354747 -0.40541,-0.506607 -0.60802,-0.760014 -0.20259,-0.25341 -2.93872,-1.165356 -2.93872,-1.165356 0,0 1.18218,1.790325 1.77337,2.685384 0.5912,0.895054 2.02671,0.304005 2.02671,0.304005 z" />
    </g>
  </g>
</svg>
